<svg width="24" height="25" viewBox="0 0 24 25" fill="none" xmlns="http://www.w3.org/2000/svg">
<path d="M18.8475 2.4844C21.142 2.48455 23.0017 4.40932 23.0018 6.78322V19.3692C23.0017 21.7431 21.1421 23.6678 18.8475 23.668H6.68248C4.38781 23.668 2.52728 21.7432 2.52721 19.3692V19.3233L2.48229 19.3037C2.49675 19.2696 2.51224 19.2349 2.52721 19.2002V8.58986L3.28697 8.88088L4.18932 11.4053V16.2461C4.8525 15.3181 5.64259 14.4492 6.53893 13.8272C7.5054 13.1566 8.65219 12.7343 9.91002 12.9112C11.1674 13.0882 12.3857 13.8426 13.537 15.2129C13.9964 15.7598 14.424 16.2659 14.8202 16.7344C14.9124 16.604 15.0087 16.4752 15.1112 16.3516C15.626 15.7305 16.3111 15.1635 17.1688 14.918C18.5015 14.5367 19.9056 14.9975 21.3407 16.3975V6.78322C21.3406 5.35896 20.2242 4.20428 18.8475 4.20412H8.43053L7.97545 4.02932L7.42272 2.4844H18.8475ZM9.67076 14.7285C8.96118 14.6288 8.24599 14.8512 7.52623 15.3506C6.12549 16.3227 4.93022 18.1955 4.22252 19.7715C4.4095 21.0046 5.43814 21.9483 6.68248 21.9483H16.9286C16.8496 21.8589 16.766 21.7647 16.6786 21.6651C15.7464 20.6019 14.3141 18.9337 12.1991 16.416C11.2378 15.2718 10.3808 14.8285 9.67076 14.7285ZM21.3407 19.1787C19.5642 16.6845 18.3251 16.4902 17.6415 16.6856C17.23 16.8033 16.8276 17.1 16.4579 17.5459C16.3017 17.7343 16.1581 17.9418 16.0292 18.1572C16.8499 19.1191 17.4942 19.8649 17.9921 20.4326C18.4526 20.9579 18.7856 21.3293 19.0145 21.5781C19.1287 21.7024 19.2145 21.7939 19.2762 21.8574C19.2927 21.8744 19.3071 21.8883 19.3182 21.8994C20.4695 21.6714 21.3406 20.6268 21.3407 19.3692V19.1787ZM16.5204 8.34572C17.7652 8.34572 18.7743 9.3548 18.7743 10.5996C18.7742 11.8444 17.7652 12.8535 16.5204 12.8535C15.2757 12.8534 14.2666 11.8443 14.2665 10.5996C14.2665 9.35487 15.2756 8.34583 16.5204 8.34572ZM16.5204 9.84768C16.1055 9.84779 15.7694 10.1847 15.7694 10.5996C15.7695 11.0144 16.1056 11.3505 16.5204 11.3506C16.9353 11.3506 17.2722 11.0145 17.2723 10.5996C17.2723 10.1847 16.9353 9.84768 16.5204 9.84768ZM5.29674 1.90627C5.41038 1.58853 5.84423 1.58853 5.95787 1.90627L6.17565 2.51565C6.17721 2.51545 6.17897 2.51584 6.18053 2.51565L6.78405 4.20412H6.78014L6.86901 4.45217C6.98808 4.78505 7.24162 5.04767 7.56334 5.17092L10.0243 6.1133C10.3314 6.23087 10.3314 6.6803 10.0243 6.79787L7.56334 7.73928C7.24167 7.86245 6.98816 8.12528 6.86901 8.45803L5.95787 11.0049C5.84407 11.3222 5.41049 11.3222 5.29674 11.0049L4.38561 8.45803C4.26644 8.12529 4.01296 7.86243 3.69127 7.73928L1.23033 6.79787C0.923222 6.6803 0.923222 6.23087 1.23033 6.1133L3.69127 5.17092C4.01307 5.04772 4.2665 4.78508 4.38561 4.45217L5.29674 1.90627Z" fill="url(#paint0_linear_229_14510)"/>
<defs>
<linearGradient id="paint0_linear_229_14510" x1="12.0009" y1="1.66797" x2="12.0009" y2="23.668" gradientUnits="userSpaceOnUse">
<stop stop-color="#8980F7"/>
<stop offset="1" stop-color="#4136C1"/>
</linearGradient>
</defs>
</svg>
