<svg width="24" height="25" viewBox="0 0 24 25" fill="none" xmlns="http://www.w3.org/2000/svg">
<path d="M18.8466 2.48488C21.1412 2.48502 23.0016 4.40999 23.0018 6.7837V19.3687C23.0018 21.7426 21.1414 23.6674 18.8466 23.6675H6.68055C4.38564 23.6675 2.52527 21.7427 2.52527 19.3687V19.3228L2.48035 19.3032C2.49482 19.2691 2.5103 19.2344 2.52527 19.1997V8.59034L3.28504 8.88136L4.18738 11.4058V16.2466C4.85057 15.3187 5.64066 14.4496 6.53699 13.8276C7.50358 13.1571 8.6511 12.7347 9.90906 12.9116C11.1664 13.0888 12.3848 13.8432 13.536 15.2134C13.9955 15.7603 14.423 16.2664 14.8192 16.7349C14.9115 16.6044 15.0087 16.4758 15.1112 16.3521C15.6259 15.7312 16.3104 15.164 17.1679 14.9185C18.5003 14.5373 19.905 14.9971 21.3397 16.396V6.7837C21.3395 5.3596 20.2232 4.20474 18.8466 4.2046H8.42957L7.97352 4.0298L7.42078 2.48488H18.8466ZM9.66981 14.728C8.96018 14.6282 8.24509 14.8518 7.52528 15.3511C6.12453 16.3229 4.92844 18.1951 4.22059 19.771C4.40741 21.0042 5.43596 21.9478 6.68055 21.9478H16.9276C16.8488 21.8586 16.7648 21.765 16.6776 21.6655C15.7453 20.6024 14.3123 18.9341 12.1972 16.4165C11.236 15.2726 10.3798 14.828 9.66981 14.728ZM21.3397 19.1773C19.5641 16.6852 18.3251 16.4909 17.6415 16.686C17.23 16.8038 16.8266 17.1005 16.4569 17.5464C16.3006 17.735 16.1573 17.943 16.0282 18.1587C16.8487 19.1202 17.4934 19.8655 17.9911 20.4331C18.4514 20.958 18.7847 21.3288 19.0136 21.5777C19.1279 21.7019 19.2136 21.7943 19.2753 21.8579C19.2923 21.8754 19.3069 21.8895 19.3182 21.9009C20.4694 21.6726 21.3397 20.6261 21.3397 19.3687V19.1773ZM16.5223 8.3462C17.7672 8.34628 18.7762 9.35539 18.7763 10.6001C18.7763 11.8449 17.7672 12.8539 16.5223 12.854C15.2774 12.854 14.2684 11.8449 14.2684 10.6001C14.2685 9.35535 15.2774 8.3462 16.5223 8.3462ZM16.5223 9.84913C16.1074 9.84913 15.7704 10.1852 15.7704 10.6001C15.7704 11.0151 16.1074 11.3511 16.5223 11.3511C16.9373 11.351 17.2733 11.015 17.2733 10.6001C17.2733 10.1852 16.9373 9.84921 16.5223 9.84913ZM5.29676 1.90675C5.41041 1.58903 5.84522 1.58903 5.95887 1.90675L6.17664 2.51613H6.1786L6.78211 4.2046H6.78016L6.86903 4.45265C6.98813 4.78562 7.24246 5.04819 7.56434 5.1714L10.0253 6.11378C10.3324 6.23135 10.3324 6.68078 10.0253 6.79835L7.56434 7.74074C7.24246 7.86395 6.98813 8.12651 6.86903 8.45949L5.95887 11.0054C5.84516 11.323 5.41045 11.323 5.29676 11.0054L4.3866 8.45949C4.2675 8.12651 4.01317 7.86395 3.69129 7.74074L1.23035 6.79835C0.923216 6.68078 0.923216 6.23135 1.23035 6.11378L3.69129 5.1714C4.01317 5.04819 4.2675 4.78562 4.3866 4.45265L5.29676 1.90675Z" fill="#363F5A"/>
</svg>
