<svg width="24" height="24" viewBox="0 0 24 24" fill="none" xmlns="http://www.w3.org/2000/svg">
<path d="M12.2871 9.11711L17.8329 3.57136L21.0019 6.74034L15.4561 12.2861" stroke="#363F5A" stroke-width="1.5" stroke-miterlimit="10" stroke-linecap="round" stroke-linejoin="round"/>
<path d="M12.2851 15.4542L6.73929 21L3.57031 17.831L9.11607 12.2852" stroke="#363F5A" stroke-width="1.5" stroke-miterlimit="10" stroke-linecap="round" stroke-linejoin="round"/>
<path d="M18.7711 15.6L15.6016 18.7695" stroke="#363F5A" stroke-width="1.5" stroke-miterlimit="10" stroke-linecap="round" stroke-linejoin="round"/>
<path d="M17.832 8.32483L18.6244 9.11719" stroke="#363F5A" stroke-width="1.5" stroke-miterlimit="10" stroke-linecap="round" stroke-linejoin="round"/>
<path d="M8.32422 17.8307L9.11658 18.623" stroke="#363F5A" stroke-width="1.5" stroke-miterlimit="10" stroke-linecap="round" stroke-linejoin="round"/>
<path d="M3 3.00012L4.58449 7.75363L17.4994 20.6685C17.937 21.1061 18.6437 21.1088 19.0812 20.6712C19.601 20.1514 20.1513 19.601 20.6711 19.0812C21.1087 18.6436 21.1078 17.9388 20.6702 17.5013C18.158 14.9891 7.75351 4.58461 7.75351 4.58461L3 3.00012Z" stroke="#363F5A" stroke-width="1.5" stroke-miterlimit="10" stroke-linecap="round" stroke-linejoin="round"/>
</svg>
