<svg width="24" height="24" viewBox="0 0 24 24" fill="none" xmlns="http://www.w3.org/2000/svg">
<path fill-rule="evenodd" clip-rule="evenodd" d="M18.3943 4.14443L20.1443 5.88443C20.3271 6.06522 20.4332 6.30945 20.4406 6.56642C20.4481 6.82339 20.3563 7.07336 20.1843 7.26443L19.1843 8.26443L18.4993 7.57942C18.4063 7.48569 18.2957 7.4113 18.1738 7.36053C18.052 7.30976 17.9213 7.28362 17.7893 7.28362C17.6573 7.28362 17.5266 7.30976 17.4047 7.36053C17.2828 7.4113 17.1722 7.48569 17.0793 7.57942C16.893 7.76678 16.7885 8.02023 16.7885 8.28442C16.7885 8.54861 16.893 8.80206 17.0793 8.98942L17.7743 9.67443L16.6833 10.7652L13.5233 7.59522L16.9743 4.14443C17.0672 4.0507 17.1778 3.97631 17.2997 3.92554C17.4216 3.87477 17.5523 3.84863 17.6843 3.84863C17.8163 3.84863 17.947 3.87477 18.0689 3.92554C18.1907 3.97631 18.3013 4.0507 18.3943 4.14443ZM10.8035 16.6444L9.51546 17.9286L8.88549 17.2906C8.69812 17.1044 8.44467 16.9998 8.18049 16.9998C7.9163 16.9998 7.66285 17.1044 7.47549 17.2906C7.38176 17.3836 7.30736 17.4942 7.25659 17.6161C7.20583 17.7379 7.17969 17.8686 7.17969 18.0006C7.17969 18.1326 7.20583 18.2634 7.25659 18.3852C7.30736 18.5071 7.38176 18.6177 7.47549 18.7106L8.10237 19.3375L7.29345 20.1441C7.10609 20.3303 6.85264 20.4348 6.58845 20.4348C6.32427 20.4348 6.07082 20.3303 5.88345 20.1441L4.14345 18.394C4.04973 18.3011 3.97533 18.1905 3.92456 18.0686C3.87379 17.9468 3.84766 17.8161 3.84766 17.6841C3.84766 17.552 3.87379 17.4213 3.92456 17.2995C3.97533 17.1776 4.04973 17.067 4.14345 16.974L7.62345 13.4844L10.8035 16.6444Z" fill="url(#paint0_linear_1026_18350)"/>
<path fill-rule="evenodd" clip-rule="evenodd" d="M3.64631 3.1443H3.80631L7.60631 4.4043C7.60631 4.4043 13.9363 10.7743 17.9163 14.7443L14.7463 17.9143L4.43631 7.6043L3.14631 3.8043C3.11735 3.72692 3.10844 3.64347 3.12039 3.56171C3.13234 3.47995 3.16477 3.40255 3.21466 3.33669C3.26455 3.27083 3.33029 3.21865 3.40576 3.18502C3.48123 3.15138 3.56398 3.13738 3.64631 3.1443ZM19.3082 16.1443L20.4982 17.3343C20.6028 17.4375 20.6859 17.5606 20.7426 17.6962C20.7993 17.8318 20.8285 17.9773 20.8285 18.1243C20.8285 18.2713 20.7993 18.4168 20.7426 18.5524C20.6859 18.688 20.6028 18.811 20.4982 18.9143L18.9082 20.5043C18.8049 20.6089 18.6819 20.6919 18.5463 20.7485C18.4107 20.8052 18.2652 20.8343 18.1182 20.8343C17.8216 20.8333 17.5375 20.7146 17.3282 20.5043L16.1182 19.3343L19.3082 16.1443Z" fill="url(#paint1_linear_1026_18350)"/>
<defs>
<linearGradient id="paint0_linear_1026_18350" x1="12.1444" y1="3.84863" x2="12.1444" y2="20.4348" gradientUnits="userSpaceOnUse">
<stop stop-color="#F560B6"/>
<stop offset="1" stop-color="#F2446C"/>
</linearGradient>
<linearGradient id="paint1_linear_1026_18350" x1="11.9719" y1="3.14258" x2="11.9719" y2="20.8343" gradientUnits="userSpaceOnUse">
<stop stop-color="#F560B6"/>
<stop offset="1" stop-color="#F2446C"/>
</linearGradient>
</defs>
</svg>
