<svg width="24" height="24" viewBox="0 0 24 24" fill="none" xmlns="http://www.w3.org/2000/svg">
<path d="M12.2871 9.11711L17.8329 3.57136L21.0019 6.74034L15.4561 12.2861" stroke="url(#paint0_linear_1026_18342)" stroke-width="1.5" stroke-miterlimit="10" stroke-linecap="round" stroke-linejoin="round"/>
<path d="M12.2851 15.4542L6.73929 21L3.57031 17.831L9.11607 12.2852" stroke="url(#paint1_linear_1026_18342)" stroke-width="1.5" stroke-miterlimit="10" stroke-linecap="round" stroke-linejoin="round"/>
<path d="M18.7711 15.6L15.6016 18.7695" stroke="url(#paint2_linear_1026_18342)" stroke-width="1.5" stroke-miterlimit="10" stroke-linecap="round" stroke-linejoin="round"/>
<path d="M17.832 8.32385L18.6244 9.11621" stroke="url(#paint3_linear_1026_18342)" stroke-width="1.5" stroke-miterlimit="10" stroke-linecap="round" stroke-linejoin="round"/>
<path d="M8.32422 17.8307L9.11658 18.623" stroke="url(#paint4_linear_1026_18342)" stroke-width="1.5" stroke-miterlimit="10" stroke-linecap="round" stroke-linejoin="round"/>
<path d="M3 3.00012L4.58449 7.75363L17.4994 20.6685C17.937 21.1061 18.6437 21.1088 19.0812 20.6712C19.601 20.1514 20.1513 19.601 20.6711 19.0812C21.1087 18.6436 21.1078 17.9388 20.6702 17.5013C18.158 14.9891 7.75351 4.58461 7.75351 4.58461L3 3.00012Z" stroke="url(#paint5_linear_1026_18342)" stroke-width="1.5" stroke-miterlimit="10" stroke-linecap="round" stroke-linejoin="round"/>
<defs>
<linearGradient id="paint0_linear_1026_18342" x1="16.6445" y1="12.2861" x2="16.6445" y2="3.57136" gradientUnits="userSpaceOnUse">
<stop stop-color="#F560B6"/>
<stop offset="1" stop-color="#F2446C"/>
</linearGradient>
<linearGradient id="paint1_linear_1026_18342" x1="7.9277" y1="21" x2="7.9277" y2="12.2852" gradientUnits="userSpaceOnUse">
<stop stop-color="#F560B6"/>
<stop offset="1" stop-color="#F2446C"/>
</linearGradient>
<linearGradient id="paint2_linear_1026_18342" x1="17.1863" y1="18.7695" x2="17.1863" y2="15.6" gradientUnits="userSpaceOnUse">
<stop stop-color="#F560B6"/>
<stop offset="1" stop-color="#F2446C"/>
</linearGradient>
<linearGradient id="paint3_linear_1026_18342" x1="18.2282" y1="9.11621" x2="18.2282" y2="8.32385" gradientUnits="userSpaceOnUse">
<stop stop-color="#F560B6"/>
<stop offset="1" stop-color="#F2446C"/>
</linearGradient>
<linearGradient id="paint4_linear_1026_18342" x1="8.7204" y1="18.623" x2="8.7204" y2="17.8307" gradientUnits="userSpaceOnUse">
<stop stop-color="#F560B6"/>
<stop offset="1" stop-color="#F2446C"/>
</linearGradient>
<linearGradient id="paint5_linear_1026_18342" x1="11.9994" y1="20.998" x2="11.9994" y2="3.00012" gradientUnits="userSpaceOnUse">
<stop stop-color="#F560B6"/>
<stop offset="1" stop-color="#F2446C"/>
</linearGradient>
</defs>
</svg>
