<svg width="20" height="20" viewBox="0 0 20 20" fill="none" xmlns="http://www.w3.org/2000/svg">
<path fill-rule="evenodd" clip-rule="evenodd" d="M13.1517 5.75313C13.2812 5.75313 13.3768 5.63211 13.3468 5.50607C13.104 4.12479 12.6345 2.79309 11.9572 1.56476C11.7231 1.12459 11.4166 0.726878 11.0505 0.388248C10.7582 0.146684 10.3934 0.00998364 10.0142 0C9.63074 0.0198905 9.26539 0.169215 8.97793 0.423544C8.61183 0.762174 8.30532 1.15989 8.07121 1.60005C7.39753 2.81746 6.92814 4.13695 6.68169 5.50607C6.65166 5.63211 6.74723 5.75313 6.8768 5.75313L13.1517 5.75313ZM6.59325 7.12793C6.49578 7.12793 6.41677 7.20694 6.41677 7.3044C6.21263 9.09475 6.21264 10.9025 6.41681 12.6928C6.41681 12.7903 6.49582 12.8693 6.59329 12.8693H13.4235C13.521 12.8693 13.6 12.7903 13.6 12.6928C13.7085 11.7987 13.7675 10.8992 13.7766 9.99861C13.7753 9.09841 13.7242 8.19897 13.6235 7.3044C13.6235 7.20694 13.5445 7.12793 13.4471 7.12793L6.59325 7.12793ZM15.1604 9.99861C15.1603 9.08093 15.1132 8.19855 15.0308 7.35147C15.0308 7.22801 15.1309 7.12793 15.2543 7.12793H19.4993C19.5678 7.12793 19.6233 7.18347 19.6233 7.25198C19.6233 7.26335 19.6249 7.27466 19.628 7.28561C20.1242 9.06029 20.1243 10.9369 19.628 12.7116C19.6249 12.7226 19.6234 12.7339 19.6234 12.7452C19.6234 12.8138 19.5678 12.8693 19.4993 12.8693L15.2386 12.8693C15.1239 12.8693 15.0308 12.7763 15.0308 12.6616C15.0308 12.651 15.0316 12.6405 15.0332 12.6302C15.1604 11.7878 15.1604 10.9107 15.1604 9.99861ZM14.7771 5.57488C14.7784 5.58287 14.779 5.59096 14.779 5.59906C14.779 5.68331 14.8473 5.7516 14.9316 5.7516H18.7456C18.8966 5.7516 18.9938 5.59144 18.9241 5.45748C17.7604 3.19437 15.7833 1.45448 13.3894 0.586725C13.2096 0.520308 13.044 0.716122 13.1422 0.880853C13.9578 2.33797 14.5111 3.92674 14.7771 5.57488ZM14.8025 14.3996C14.8025 14.3154 14.8708 14.2471 14.955 14.2471L18.7557 14.2471C18.9071 14.2471 19.0086 14.4026 18.9476 14.5412C17.7839 16.8043 15.8069 18.5442 13.413 19.4119C13.2331 19.4784 13.0676 19.2825 13.1657 19.1178C13.9813 17.6607 14.5346 16.0719 14.8006 14.4238C14.8019 14.4158 14.8025 14.4077 14.8025 14.3996ZM6.85013 14.247C6.72462 14.247 6.62287 14.3487 6.62287 14.4742C6.62287 14.4874 6.62402 14.5006 6.62632 14.5135C6.87003 15.8878 7.33831 17.2128 8.01244 18.4353C8.24656 18.8755 8.55308 19.2732 8.91918 19.6118C9.22707 19.8661 9.61491 20.0036 10.0143 20.0001C10.3978 19.9802 10.7631 19.8309 11.0506 19.5765C11.4167 19.2379 11.7232 18.8402 11.9573 18.4C12.6346 17.1717 13.1041 15.84 13.3468 14.4587C13.3764 14.3523 13.2964 14.247 13.1859 14.247H6.85013ZM4.86297 9.9985C4.86297 10.9085 4.90929 11.749 4.99044 12.6234C4.99182 12.6382 4.99173 12.6531 4.99017 12.6679C4.97812 12.7823 4.88161 12.8692 4.76654 12.8692H0.500602C0.43202 12.8692 0.376423 12.8136 0.376422 12.745C0.376422 12.7337 0.37488 12.7225 0.371865 12.7116C0.12684 11.828 0.00162042 10.9155 -0.000420291 9.9985C0.0135872 9.07949 0.154486 8.16684 0.418263 7.28638C0.421717 7.27486 0.423488 7.26289 0.423488 7.25085C0.423488 7.1829 0.478571 7.12782 0.54652 7.12782H4.78473C4.89947 7.12782 4.99248 7.22083 4.99248 7.33556C4.99248 7.34608 4.99168 7.35657 4.99011 7.36696C4.86295 8.20928 4.86296 9.08645 4.86297 9.99849L4.86297 9.9985ZM5.23902 5.58689C5.50421 3.93446 6.05825 2.34151 6.87582 0.880853C6.97396 0.716122 6.8084 0.520308 6.62852 0.586725C4.23464 1.45448 2.25762 3.19437 1.09395 5.45748C1.02423 5.59144 1.12143 5.7516 1.27245 5.7516H5.04908C5.14456 5.7516 5.22551 5.68141 5.23902 5.58689ZM5.08653 14.2471C5.17078 14.2471 5.23908 14.3154 5.23908 14.3996C5.23908 14.4077 5.23972 14.4158 5.24101 14.4238C5.50698 16.0719 6.06034 17.6607 6.87594 19.1178C6.97408 19.2825 6.80853 19.4784 6.62865 19.4119C4.23475 18.5442 2.25772 16.8043 1.09402 14.5412C1.02429 14.4072 1.12149 14.2471 1.27251 14.2471H5.08653Z" fill="url(#paint0_linear_7075_8338)"/>
<defs>
<linearGradient id="paint0_linear_7075_8338" x1="9.99982" y1="0" x2="9.99982" y2="20.0002" gradientUnits="userSpaceOnUse">
<stop stop-color="#FAC538"/>
<stop offset="1" stop-color="#FF8008"/>
</linearGradient>
</defs>
</svg>
