<svg width="20" height="20" viewBox="0 0 20 20" fill="none" xmlns="http://www.w3.org/2000/svg">
<path fill-rule="evenodd" clip-rule="evenodd" d="M10.058 0C4.55043 0 2.99522e-05 4.4047 6.80004e-05 10C0.000105236 15.4758 4.4304 20 10.0582 20C15.5672 20 19.9972 15.5941 19.9978 10.0012C20.1168 4.40412 15.5647 0 10.058 0ZM9.19507 1.73025C9.40452 1.52201 9.72653 1.41176 10.058 1.41176C10.3745 1.41176 10.586 1.51167 10.9293 1.73851C11.1666 1.97442 11.5059 2.31367 11.7323 2.65015C12.1971 3.45992 12.6635 4.61841 12.898 6.00976L12.898 6.11765L7.21815 6.11765L7.21815 6.00976C7.45166 4.62413 7.91514 3.46945 8.37807 2.66015C8.55498 2.48305 8.70252 2.30683 8.8332 2.14803L8.8727 2.09997L8.87271 2.09996C8.99079 1.95621 9.09319 1.83154 9.19507 1.73025ZM5.7982 6.10518L5.7982 6.11765L2.43977 6.11765L2.4725 6.05263L2.4737 6.05009C3.4055 4.08141 5.15313 2.57414 7.13393 1.87749L7.30488 1.835L7.23767 1.93453L7.23302 1.94287C6.63354 3.0157 6.15711 4.43987 5.80082 6.093L5.7982 6.10518ZM17.7495 6.11765L14.3179 6.11765L14.3179 6.10518L14.3153 6.093C13.9599 4.44423 13.4841 3.01858 12.883 2.06006L12.7639 1.82323L12.9832 1.87774C15.0692 2.57037 16.697 4.06622 17.7495 6.02931L17.7495 6.11765ZM1.775 7.5485L1.775 7.52941L5.56155 7.52941L5.56155 7.63737C5.44322 8.35068 5.44323 9.17774 5.44323 9.87703L5.44323 9.87706L5.44323 9.88815L5.44323 9.88818C5.44324 10.7036 5.44324 11.4151 5.56158 12.1273L5.56158 12.2353H1.82404L1.7621 12.1737C1.53344 11.3711 1.42003 10.6832 1.42002 9.88235C1.42002 9.06918 1.53696 8.25851 1.76892 7.56661L1.775 7.5485ZM7.09983 7.53915L7.09983 7.52941L13.0163 7.52941L13.0163 7.53915L13.0179 7.54875C13.1343 8.24312 13.1347 9.05616 13.1347 9.88235C13.1347 10.7085 13.1344 11.5216 13.018 12.216L13.0163 12.2256L13.0163 12.2353H7.09986L7.09986 12.2256L7.09825 12.216C6.98185 11.5216 6.98152 10.7085 6.98152 9.88235C6.98151 9.05616 6.98183 8.24312 7.09822 7.54875L7.09983 7.53915ZM18.3412 12.2162L18.3412 12.2353L14.5546 12.2353L14.5546 12.1273C14.673 11.414 14.673 10.5869 14.673 9.88765L14.673 9.88763L14.673 9.87657L14.673 9.87655C14.6729 9.06108 14.6729 8.34964 14.5546 7.63737L14.5546 7.52941H18.2921L18.3559 7.59285C18.5821 8.27896 18.6962 9.07944 18.6962 9.88235C18.6962 10.6955 18.5792 11.5062 18.3473 12.1981L18.3412 12.2162ZM2.32149 13.6471L5.67992 13.6471L5.67992 13.6595L5.68254 13.6717C6.03791 15.3205 6.51372 16.7461 7.11489 17.7046L7.2213 17.9162L7.13732 17.8884C5.04057 17.1935 3.40639 15.6874 2.35358 13.7109L2.32149 13.6471ZM7.2182 13.7549L7.2182 13.6471H12.898L12.898 13.7549C12.6645 15.1406 12.201 16.2953 11.7381 17.1046C11.5612 17.2817 11.4137 17.4579 11.283 17.6167L11.2435 17.6647L11.2435 17.6648C11.1254 17.8085 11.023 17.9332 10.9211 18.0345C10.7117 18.2427 10.3897 18.3529 10.0581 18.3529C9.7417 18.3529 9.53021 18.253 9.18687 18.0262C8.94962 17.7903 8.61026 17.451 8.3839 17.1146C7.91906 16.3048 7.45269 15.1463 7.2182 13.7549ZM14.1997 13.6605L14.1997 13.6471L17.6312 13.6471L17.6312 13.7354C16.581 15.6932 14.9546 17.0769 12.8621 17.8877L12.6456 17.9415L12.7661 17.702C13.3647 16.6298 13.8407 15.207 14.1966 13.6735L14.1997 13.6605Z" fill="#363F5A"/>
</svg>
