<svg width="24" height="24" viewBox="0 0 24 24" fill="none" xmlns="http://www.w3.org/2000/svg">
<path fill-rule="evenodd" clip-rule="evenodd" d="M12.8709 4.13705H16.3036C18.8932 4.13705 21 6.22529 20.9999 8.7921C21.0004 9.36528 20.8933 9.93356 20.6842 10.468L3.31564 10.468C3.11206 9.94779 2.99993 9.38276 2.99993 8.7921C2.99993 6.22533 5.10669 4.13709 7.69629 4.13709L11.129 4.13709L11.129 3.84931C11.129 2.07839 12.448 1.23204 14.1381 1.02799C14.6114 0.970841 14.9997 1.36468 14.9997 1.84145C14.9997 2.31823 14.6116 2.6877 14.1369 2.73239C13.4095 2.8009 12.8709 3.03741 12.8709 3.84926L12.8709 4.13705ZM4.16107 12.5241L4.16107 14.3534C4.16107 17.0708 5.4965 19.4213 8.02304 21.1509C9.86936 22.4149 11.7027 22.901 11.7799 22.9211L11.9998 22.9783L12.2196 22.9211C12.2967 22.901 14.1301 22.415 15.9765 21.151C18.503 19.4213 19.8385 17.0708 19.8385 14.3534L19.8385 12.5241L4.16107 12.5241Z" fill="url(#paint0_linear_1026_17783)"/>
<defs>
<linearGradient id="paint0_linear_1026_17783" x1="12" y1="1.02246" x2="12" y2="22.9783" gradientUnits="userSpaceOnUse">
<stop stop-color="#FCD830"/>
<stop offset="1" stop-color="#BAAC00"/>
</linearGradient>
</defs>
</svg>
