<svg width="24" height="24" viewBox="0 0 24 24" fill="none" xmlns="http://www.w3.org/2000/svg">
<path d="M16.3036 4.15925H12.8709L12.8709 3.86531C12.8709 3.23141 13.0415 2.85926 13.3568 2.71162C13.8134 2.49782 14.362 2.23689 14.362 1.73271C14.362 1.32805 14.0328 0.993185 13.6304 1.03618C12.0127 1.20905 11.129 2.01994 11.129 3.86536L11.129 4.1593H7.69635C5.10675 4.1593 3 6.29225 3 8.91395C3 10.1095 3.43909 11.2026 4.1613 12.0389L4.1613 14.2459C4.1613 17.004 5.49673 19.3897 8.02327 21.1453C9.86958 22.4282 11.703 22.9215 11.7801 22.9419L12 23L12.2199 22.9419C12.297 22.9215 14.1304 22.4282 15.9767 21.1453C18.5033 19.3897 19.8387 17.004 19.8387 14.2459L19.8387 12.0389C20.5609 11.2026 21 10.1095 21 8.914C21 6.29221 18.8932 4.15925 16.3036 4.15925ZM18.0968 14.2459C18.0968 16.4127 17.0651 18.2355 15.0304 19.6637C13.7784 20.5426 12.5015 21.0069 12 21.1687C11.4985 21.0069 10.2216 20.5426 8.9696 19.6637C6.93499 18.2355 5.90327 16.4127 5.90327 14.2459L5.90327 12.5426H18.0968L18.0968 14.2459ZM18.6109 10.7791H5.38912C4.9847 10.2672 4.74197 9.61885 4.74197 8.91391C4.74197 7.26464 6.06731 5.92281 7.69639 5.92281H16.3036C17.9327 5.92281 19.258 7.26464 19.258 8.91391C19.258 9.61885 19.0153 10.2672 18.6109 10.7791Z" fill='#363F5A' />
</svg>
