<svg width="24" height="24" viewBox="0 0 24 24" fill="none" xmlns="http://www.w3.org/2000/svg">
<path d="M22.9148 7.35466C22.9097 7.3493 22.9044 7.34406 22.8991 7.33897L18.3438 3.29037C18.3023 3.25249 18.2538 3.22308 18.2009 3.20377L14.9058 2.02599C14.8421 2.00287 14.7739 1.99502 14.7066 2.00306C14.6393 2.01111 14.5749 2.03483 14.5184 2.07231C14.462 2.10979 14.4152 2.16 14.3817 2.21889C14.3482 2.27777 14.3289 2.3437 14.3256 2.41137C14.3256 2.50663 14.1827 4.70196 11.9873 4.73661C9.779 4.70196 9.64044 2.50663 9.6361 2.41137C9.63251 2.34422 9.61333 2.27884 9.58007 2.22039C9.54682 2.16195 9.50041 2.11205 9.44453 2.07466C9.38865 2.03726 9.32482 2.0134 9.25812 2.00495C9.19141 1.9965 9.12365 2.00371 9.06021 2.02599L5.76937 3.21676C5.71654 3.23608 5.66804 3.26547 5.62648 3.30336L1.10157 7.33897C1.05899 7.37942 1.02508 7.42811 1.00191 7.48208C0.978745 7.53605 0.966797 7.59416 0.966797 7.6529C0.966797 7.71163 0.978745 7.76974 1.00191 7.82371C1.02508 7.87768 1.05899 7.92637 1.10157 7.96682L4.70417 11.6084L4.70417 21.5675C4.70417 21.6824 4.74979 21.7925 4.831 21.8737C4.9122 21.9549 5.02234 22.0005 5.13718 22.0005H18.8634C18.9783 22.0005 19.0884 21.9549 19.1696 21.8737C19.2508 21.7925 19.2965 21.6824 19.2965 21.5675L19.2965 11.6084L22.8991 7.96682C22.9403 7.92766 22.9734 7.88076 22.9965 7.8288C23.0196 7.77684 23.0322 7.72084 23.0337 7.66399C23.0351 7.60715 23.0254 7.55058 23.005 7.4975C22.9846 7.44443 22.9539 7.39589 22.9148 7.35466ZM19.2835 10.3743L19.2835 8.36519C19.2835 8.25035 19.2378 8.14021 19.1566 8.05901C19.0754 7.9778 18.9653 7.93218 18.8505 7.93218C18.7356 7.93218 18.6255 7.9778 18.5443 8.05901C18.4631 8.14021 18.4175 8.25035 18.4175 8.36519L18.4175 21.1129H5.55287L5.55287 8.36519C5.55287 8.25035 5.50724 8.14021 5.42604 8.05901C5.34484 7.9778 5.2347 7.93218 5.11986 7.93218C5.00502 7.93218 4.89488 7.9778 4.81368 8.05901C4.73247 8.14021 4.68685 8.25035 4.68685 8.36519L4.68685 10.3787L2.02387 7.68104L6.14608 3.99184L8.8567 3.01324C9.19249 4.74343 10.8673 5.87384 12.5975 5.53804C13.8752 5.29004 14.8743 4.29099 15.1223 3.01324L17.8329 3.99184L21.9421 7.68104L19.2835 10.3743Z" fill='#363F5A' stroke='#363F5A' stroke-width="0.7"/>
</svg>
