<svg width="24" height="24" viewBox="0 0 24 24" fill="none" xmlns="http://www.w3.org/2000/svg">
<g clip-path="url(#clip0_1026_17963)">
<path d="M23.4648 7.31285C23.4183 7.17665 23.3353 7.05578 23.2248 6.9633L18.6648 2.90853L15.0748 1.56026C14.9336 1.52556 14.7861 1.52556 14.6448 1.56026C14.5001 1.57205 14.3616 1.62393 14.2448 1.71007C14.1209 1.78714 14.0179 1.89346 13.9448 2.01967C13.873 2.15196 13.8319 2.29877 13.8248 2.44912C13.8197 2.93317 13.6255 3.3961 13.2837 3.73933C12.9419 4.08255 12.4795 4.27897 11.9948 4.28675C11.7476 4.28546 11.503 4.23521 11.2753 4.13889C11.0476 4.04258 10.8413 3.90212 10.6683 3.72565C10.4953 3.54917 10.3591 3.34019 10.2676 3.11079C10.176 2.88138 10.1309 2.63612 10.1348 2.38919C10.1244 2.24257 10.0836 2.09972 10.0148 1.96973C9.94148 1.847 9.84258 1.74142 9.72484 1.66013C9.60176 1.57712 9.4617 1.52253 9.31484 1.50034C9.17357 1.46603 9.02612 1.46603 8.88484 1.50034L5.51484 2.78868L0.754844 6.9633C0.574868 7.14437 0.471104 7.38737 0.464844 7.64243C0.465279 7.76984 0.492536 7.89574 0.544844 8.01195C0.591302 8.1239 0.659245 8.22568 0.744844 8.31157L3.96484 11.5574C4.04311 11.6693 4.14814 11.7599 4.27039 11.8209C4.39265 11.882 4.52824 11.9116 4.66484 11.9069L4.91484 11.857L5.04484 11.6972C5.14723 11.5595 5.19367 11.3883 5.17484 11.2178L5.17484 9.69978C5.17484 9.56734 5.22752 9.44033 5.32129 9.34668C5.41506 9.25303 5.54224 9.20042 5.67484 9.20042C5.80745 9.20042 5.93463 9.25303 6.0284 9.34668C6.12217 9.44033 6.17484 9.56734 6.17484 9.69978L6.17484 20.3361C6.17483 20.6363 6.29357 20.9244 6.5052 21.1376C6.71683 21.3509 7.00423 21.472 7.30484 21.4746H16.6848C16.9872 21.4746 17.2772 21.3547 17.4909 21.1411C17.7047 20.9276 17.8248 20.638 17.8248 20.3361L17.8248 9.69978C17.8248 9.56734 17.8775 9.44033 17.9713 9.34668C18.0651 9.25303 18.1922 9.20042 18.3248 9.20042C18.4575 9.20042 18.5846 9.25303 18.6784 9.34668C18.7722 9.44033 18.8248 9.56734 18.8248 9.69978C18.8248 9.81962 18.8248 10.8982 18.8248 11.2977C18.8394 11.4552 18.9048 11.6037 19.0112 11.7208C19.1177 11.8379 19.2593 11.9172 19.4148 11.9469C19.5416 11.9668 19.6714 11.9544 19.792 11.9107C19.9127 11.8671 20.0203 11.7936 20.1048 11.6972L23.2448 8.33154C23.3406 8.25238 23.4131 8.14886 23.4548 8.03193C23.5093 7.92309 23.54 7.80394 23.5448 7.68238C23.545 7.5549 23.5177 7.42887 23.4648 7.31285Z" fill="url(#paint0_linear_1026_17963)"/>
</g>
<defs>
<linearGradient id="paint0_linear_1026_17963" x1="12.0048" y1="1.47461" x2="12.0048" y2="21.4746" gradientUnits="userSpaceOnUse">
<stop stop-color="#5CF0BE"/>
<stop offset="1" stop-color="#2F9B69"/>
</linearGradient>
<clipPath id="clip0_1026_17963">
<rect width="23.07" height="21" fill="white" transform="translate(0.464844 1.5)"/>
</clipPath>
</defs>
</svg>
