<svg width="24" height="24" viewBox="0 0 24 24" fill="none" xmlns="http://www.w3.org/2000/svg">
<path fill-rule="evenodd" clip-rule="evenodd" d="M4.323 20.6628C4.91399 20.9029 5.54864 21.017 6.18628 20.9977H12.8201C13.4578 21.017 14.0924 20.9029 14.6834 20.6628C15.2744 20.4226 15.8087 20.0616 16.2521 19.603C16.6955 19.1443 17.0382 18.5981 17.2582 17.9993C17.4783 17.4006 17.5709 16.7624 17.53 16.1258L17.5299 7.87401C17.5708 7.23738 17.4782 6.59925 17.2581 6.00048C17.038 5.40171 16.6953 4.85551 16.2519 4.39686C15.8085 3.93822 15.2742 3.57724 14.6832 3.33706C14.0922 3.09688 13.4576 2.98279 12.8199 3.0021H6.1861C5.54846 2.98279 4.91382 3.09688 4.32283 3.33706C3.73184 3.57724 3.19754 3.93822 2.75415 4.39686C2.31075 4.85551 1.96805 5.40171 1.74798 6.00048C1.52792 6.59925 1.43535 7.23738 1.4762 7.87401L1.47628 16.1258C1.43544 16.7624 1.52802 17.4006 1.7481 17.9993C1.96817 18.5981 2.31089 19.1443 2.75429 19.603C3.1977 20.0616 3.73201 20.4226 4.323 20.6628ZM21.6831 16.8544L20.3435 16.1458C20.0966 16.0102 19.8913 15.8098 19.7496 15.5663C19.6079 15.3228 19.5352 15.0453 19.5393 14.7636L19.5392 9.23349C19.5348 8.95206 19.6074 8.67477 19.7491 8.43161C19.8909 8.18845 20.0964 7.98866 20.3435 7.85386L21.6843 7.14401C21.8773 7.04002 22.095 6.99073 22.314 7.00144C22.533 7.01215 22.7449 7.08246 22.9269 7.20478C23.1154 7.33212 23.2694 7.50427 23.375 7.7058C23.4806 7.90732 23.5346 8.13191 23.532 8.35942L23.5321 15.639C23.535 15.8667 23.4812 16.0916 23.3756 16.2934C23.2699 16.4952 23.1158 16.6675 22.9269 16.7949C22.7276 16.9272 22.4938 16.9982 22.2546 16.9992C22.0551 16.9989 21.8587 16.9491 21.6831 16.8544Z" fill="url(#paint0_linear_1026_17247)"/>
<defs>
<linearGradient id="paint0_linear_1026_17247" x1="12.4995" y1="3" x2="12.4995" y2="20.9998" gradientUnits="userSpaceOnUse">
<stop stop-color="#47D6E2"/>
<stop offset="1" stop-color="#387DFF"/>
</linearGradient>
</defs>
</svg>
