<svg width="25" height="24" viewBox="0 0 25 24" fill="none" xmlns="http://www.w3.org/2000/svg">
<path fill-rule="evenodd" clip-rule="evenodd" d="M5.68626 18.9977H5.65598L5.62572 18.9986C5.26649 19.0095 4.90894 18.9452 4.57598 18.8099C4.24302 18.6746 3.942 18.4712 3.69219 18.2129C3.44239 17.9545 3.2493 17.6467 3.12532 17.3094C3.00133 16.9721 2.94917 16.6125 2.97218 16.2539L2.97628 16.1899L2.97628 16.1258L2.9762 7.87401L2.9762 7.80991L2.9721 7.74595C2.94908 7.38728 3.00123 7.02777 3.12521 6.69043C3.24919 6.35309 3.44227 6.04537 3.69207 5.78697C3.94187 5.52858 4.24289 5.32521 4.57585 5.1899C4.9088 5.05458 5.26635 4.9903 5.62559 5.00118L5.65585 5.0021H5.68612H12.32H12.3502L12.3805 5.00118C12.7397 4.9903 13.0973 5.05458 13.4302 5.1899C13.7632 5.32521 14.0642 5.52858 14.314 5.78697C14.5638 6.04536 14.7569 6.35309 14.8809 6.69043C15.0049 7.02776 15.0571 7.38728 15.034 7.74595L15.0299 7.80991V7.87401L15.03 16.1258L15.03 16.1899L15.0341 16.2539C15.0571 16.6125 15.005 16.9721 14.881 17.3094C14.757 17.6467 14.564 17.9545 14.3142 18.2129C14.0644 18.4712 13.7633 18.6746 13.4304 18.8099C13.0974 18.9452 12.7399 19.0095 12.3806 18.9986L12.3504 18.9977H12.3201H5.68626ZM1.2481 17.9993C1.02802 17.4006 0.935439 16.7624 0.97628 16.1258L0.9762 7.87401C0.935347 7.23738 1.02792 6.59925 1.24798 6.00048C1.46805 5.40171 1.81075 4.85551 2.25415 4.39686C2.69754 3.93822 3.23184 3.57724 3.82283 3.33706C4.41382 3.09688 5.04846 2.98279 5.6861 3.0021H12.3199C12.9576 2.98279 13.5922 3.09688 14.1832 3.33706C14.7742 3.57724 15.3085 3.93822 15.7519 4.39686C16.1953 4.85551 16.538 5.40171 16.7581 6.00048C16.9782 6.59925 17.0708 7.23738 17.0299 7.87401L17.03 16.1258C17.0709 16.7624 16.9783 17.4006 16.7582 17.9993C16.5382 18.5981 16.1955 19.1443 15.7521 19.603C15.3087 20.0616 14.7744 20.4226 14.1834 20.6628C13.5924 20.9029 12.9578 21.017 12.3201 20.9977H5.68628C5.04864 21.017 4.41399 20.9029 3.823 20.6628C3.23201 20.4226 2.6977 20.0616 2.25429 19.603C1.81089 19.1443 1.46817 18.5981 1.2481 17.9993ZM21.6586 8.02438C21.6913 8.00678 21.7281 7.99843 21.7652 8.00024C21.8019 8.00204 21.8375 8.01376 21.8682 8.03415C21.9191 8.06877 21.9607 8.11543 21.9893 8.16999C22.0181 8.2249 22.0328 8.28608 22.0321 8.34806L22.032 8.34806V8.35942L22.0321 15.639H22.032L22.0321 15.6518C22.0329 15.7137 22.0183 15.7748 21.9896 15.8296C21.9616 15.8832 21.9209 15.9291 21.8712 15.9635C21.836 15.9861 21.7952 15.9984 21.7533 15.9992C21.72 15.9987 21.6872 15.9901 21.6579 15.9743L21.6579 15.9743L21.6507 15.9704L20.3199 15.2665C20.2344 15.2184 20.1633 15.1483 20.114 15.0634C20.0636 14.9768 20.0377 14.8782 20.0392 14.778L20.0393 14.7708V14.7636L20.0392 9.23349V9.22559L20.0391 9.2177C20.0375 9.11856 20.0631 9.02089 20.113 8.93523C20.1622 8.85092 20.2331 8.78141 20.3183 8.73397L21.6522 8.0278L21.6522 8.02782L21.6586 8.02438ZM21.8629 6.00263C21.4634 5.98309 21.0661 6.07265 20.7137 6.26167L19.3756 6.97007L19.3755 6.97001L19.3645 6.97601C18.9574 7.19813 18.6187 7.52733 18.3852 7.92799C18.1531 8.3261 18.0336 8.77973 18.0392 9.2404L18.0393 14.7573C18.0341 15.2178 18.1537 15.6711 18.3853 16.0692C18.6183 16.4697 18.9559 16.7991 19.362 17.0222L19.3689 17.0261L19.376 17.0298L20.7124 17.7367C21.0324 17.9084 21.3898 17.9986 21.753 17.9992L21.7589 17.9992C22.1933 17.9973 22.6177 17.8684 22.9797 17.6282L22.9798 17.6283L22.9862 17.6239C23.3125 17.4038 23.579 17.1059 23.7615 16.7572C23.943 16.4106 24.0359 16.0245 24.0321 15.6334L24.032 8.36435C24.0354 7.97351 23.9422 7.58785 23.7607 7.24161C23.5783 6.89346 23.3123 6.59605 22.9865 6.37606L22.9848 6.37489C22.6517 6.15096 22.2638 6.02224 21.8629 6.00263Z" fill='#363F5A' />
</svg>
