<svg width="24" height="24" viewBox="0 0 24 24" fill="none" xmlns="http://www.w3.org/2000/svg">
<path d="M9.47348 16.0984C9.39489 16.0985 9.31886 16.0691 9.25911 16.0156L7.11647 14.1053C7.07996 14.0728 7.05063 14.0323 7.03052 13.9867C7.01041 13.9411 7 13.8915 7 13.8413C7 13.7911 7.01041 13.7415 7.03052 13.6959C7.05063 13.6504 7.07996 13.6099 7.11647 13.5773L9.25911 11.667C9.32595 11.6074 9.41267 11.578 9.5002 11.5854C9.58772 11.5927 9.66889 11.6361 9.72584 11.7061C9.84429 11.852 9.82764 12.0707 9.68833 12.1948L7.84189 13.8412L9.68833 15.4877C9.73997 15.5336 9.77688 15.5951 9.79408 15.6638C9.81128 15.7324 9.80793 15.805 9.7845 15.8716C9.76107 15.9382 9.71867 15.9957 9.66304 16.0362C9.60741 16.0768 9.54128 16.0985 9.47348 16.0984ZM15.5265 16.0984C15.4329 16.0984 15.3398 16.057 15.2743 15.9763C15.2174 15.9064 15.1894 15.8156 15.1964 15.7239C15.2034 15.6323 15.2448 15.5473 15.3117 15.4877L17.1581 13.8412L15.3117 12.1948C15.2472 12.1344 15.2078 12.0501 15.202 11.9598C15.1961 11.8695 15.2242 11.7804 15.2802 11.7115C15.3363 11.6426 15.4158 11.5993 15.5019 11.591C15.588 11.5827 15.6738 11.61 15.7409 11.667L17.8835 13.5773C17.92 13.6098 17.9494 13.6503 17.9695 13.6959C17.9896 13.7415 18 13.7911 18 13.8413C18 13.8915 17.9896 13.9411 17.9695 13.9867C17.9494 14.0323 17.92 14.0727 17.8835 14.1053L15.7409 16.0156C15.6812 16.0691 15.6051 16.0984 15.5265 16.0984ZM11.7415 17.5313C11.6922 17.5313 11.6435 17.5199 11.5989 17.4977C11.5544 17.4755 11.5151 17.4432 11.484 17.4031C11.4529 17.3631 11.4308 17.3162 11.4192 17.266C11.4076 17.2158 11.4069 17.1636 11.417 17.113L12.7524 10.4744C12.7705 10.3845 12.822 10.3057 12.8955 10.2555C12.9691 10.2053 13.0587 10.1877 13.1447 10.2067C13.2306 10.2256 13.3058 10.2796 13.3538 10.3566C13.4017 10.4336 13.4185 10.5275 13.4004 10.6174L12.0651 17.256C12.0494 17.3337 12.0088 17.4035 11.9499 17.4536C11.891 17.5037 11.8174 17.5312 11.7415 17.5313Z" fill="#363F5A" stroke="#363F5A"/>
<path fill-rule="evenodd" clip-rule="evenodd" d="M20.1722 20.9028H3.82783C2.54435 20.9028 1.5 19.8587 1.5 18.575V4.70283C1.5 3.41935 2.54435 2.375 3.82783 2.375H20.1722C21.4556 2.375 22.5 3.41935 22.5 4.70283V18.575C22.5 19.8587 21.4556 20.9028 20.1722 20.9028ZM3.82783 3.0684C2.92666 3.0684 2.1934 3.80166 2.1934 4.70283V7.2334H21.8066V4.70283C21.8066 3.80166 21.0733 3.0684 20.1722 3.0684H3.82783ZM21.8066 7.92679H2.1934V18.575C2.1934 19.4762 2.92666 20.2094 3.82783 20.2094H20.1722C21.0733 20.2094 21.8066 19.4762 21.8066 18.575V7.92679ZM3.64844 5.16162C3.64844 4.93909 3.82971 4.75781 4.05224 4.75781C4.27492 4.75781 4.45595 4.93909 4.45595 5.16162C4.45595 5.3843 4.27487 5.56537 4.05219 5.56537C3.82971 5.56537 3.64844 5.3843 3.64844 5.16162ZM6.06489 5.17222C6.06489 4.94954 6.24616 4.76846 6.46869 4.76846C6.69137 4.76846 6.87245 4.94949 6.87245 5.17222C6.87245 5.39494 6.69137 5.57602 6.46869 5.57602C6.24616 5.57602 6.06489 5.3949 6.06489 5.17222ZM8.88514 4.77891C8.66266 4.77891 8.48158 4.95999 8.48158 5.18267C8.48158 5.40535 8.66266 5.58647 8.88514 5.58647C9.10782 5.58647 9.2889 5.40535 9.2889 5.18267C9.2889 4.95999 9.10782 4.77891 8.88514 4.77891Z" fill="#363F5A"/>
<path d="M2.1934 7.2334H1.6934V7.7334H2.1934V7.2334ZM21.8066 7.2334V7.7334H22.3066V7.2334H21.8066ZM2.1934 7.92679V7.42679H1.6934V7.92679H2.1934ZM21.8066 7.92679H22.3066V7.42679H21.8066V7.92679ZM3.82783 21.4028H20.1722V20.4028H3.82783V21.4028ZM1 18.575C1 20.1349 2.26824 21.4028 3.82783 21.4028V20.4028C2.82047 20.4028 2 19.5825 2 18.575H1ZM1 4.70283V18.575H2V4.70283H1ZM3.82783 1.875C2.26821 1.875 1 3.14321 1 4.70283H2C2 3.6955 2.8205 2.875 3.82783 2.875V1.875ZM20.1722 1.875H3.82783V2.875H20.1722V1.875ZM23 4.70283C23 3.14321 21.7318 1.875 20.1722 1.875V2.875C21.1795 2.875 22 3.6955 22 4.70283H23ZM23 18.575V4.70283H22V18.575H23ZM20.1722 21.4028C21.7318 21.4028 23 20.1349 23 18.575H22C22 19.5825 21.1795 20.4028 20.1722 20.4028V21.4028ZM2.6934 4.70283C2.6934 4.07781 3.20281 3.5684 3.82783 3.5684V2.5684C2.65052 2.5684 1.6934 3.52552 1.6934 4.70283H2.6934ZM2.6934 7.2334V4.70283H1.6934V7.2334H2.6934ZM21.8066 6.7334H2.1934V7.7334H21.8066V6.7334ZM21.3066 4.70283V7.2334H22.3066V4.70283H21.3066ZM20.1722 3.5684C20.7972 3.5684 21.3066 4.0778 21.3066 4.70283H22.3066C22.3066 3.52552 21.3495 2.5684 20.1722 2.5684V3.5684ZM3.82783 3.5684H20.1722V2.5684H3.82783V3.5684ZM2.1934 8.42679H21.8066V7.42679H2.1934V8.42679ZM2.6934 18.575V7.92679H1.6934V18.575H2.6934ZM3.82783 19.7094C3.20281 19.7094 2.6934 19.2 2.6934 18.575H1.6934C1.6934 19.7523 2.65052 20.7094 3.82783 20.7094V19.7094ZM20.1722 19.7094H3.82783V20.7094H20.1722V19.7094ZM21.3066 18.575C21.3066 19.2 20.7972 19.7094 20.1722 19.7094V20.7094C21.3495 20.7094 22.3066 19.7523 22.3066 18.575H21.3066ZM21.3066 7.92679V18.575H22.3066V7.92679H21.3066ZM4.05224 4.25781C3.55357 4.25781 3.14844 4.66294 3.14844 5.16162H4.14844C4.14844 5.21523 4.10585 5.25781 4.05224 5.25781V4.25781ZM4.95595 5.16162C4.95595 4.66322 4.55134 4.25781 4.05224 4.25781V5.25781C3.9985 5.25781 3.95595 5.21495 3.95595 5.16162H4.95595ZM4.05219 6.06537C4.55101 6.06537 4.95595 5.66044 4.95595 5.16162H3.95595C3.95595 5.10815 3.99873 5.06537 4.05219 5.06537V6.06537ZM3.14844 5.16162C3.14844 5.6606 3.55373 6.06537 4.05219 6.06537V5.06537C4.10569 5.06537 4.14844 5.10799 4.14844 5.16162H3.14844ZM6.46869 4.26846C5.97022 4.26846 5.56489 4.67319 5.56489 5.17222H6.56489C6.56489 5.22588 6.5221 5.26846 6.46869 5.26846V4.26846ZM7.37245 5.17222C7.37245 4.67331 6.96747 4.26846 6.46869 4.26846V5.26846C6.41527 5.26846 6.37245 5.22567 6.37245 5.17222H7.37245ZM6.46869 6.07602C6.96755 6.07602 7.37245 5.67105 7.37245 5.17222H6.37245C6.37245 5.11884 6.41519 5.07602 6.46869 5.07602V6.07602ZM5.56489 5.17222C5.56489 5.67116 5.97014 6.07602 6.46869 6.07602V5.07602C6.52218 5.07602 6.56489 5.11863 6.56489 5.17222H5.56489ZM8.98158 5.18267C8.98158 5.23597 8.93896 5.27891 8.88514 5.27891V4.27891C8.38636 4.27891 7.98158 4.684 7.98158 5.18267H8.98158ZM8.88514 5.08647C8.93904 5.08647 8.98158 5.12944 8.98158 5.18267H7.98158C7.98158 5.68125 8.38628 6.08647 8.88514 6.08647V5.08647ZM8.7889 5.18267C8.7889 5.12928 8.8316 5.08647 8.88514 5.08647V6.08647C9.38404 6.08647 9.78889 5.68141 9.78889 5.18267H8.7889ZM8.88514 5.27891C8.83168 5.27891 8.7889 5.23613 8.7889 5.18267H9.78889C9.78889 4.68384 9.38396 4.27891 8.88514 4.27891V5.27891Z" fill="#363F5A"/>
</svg>
