<svg width="24" height="24" viewBox="0 0 24 24" fill="none" xmlns="http://www.w3.org/2000/svg">
<path fill-rule="evenodd" clip-rule="evenodd" d="M3.43868 21.705H20.5613C21.9059 21.705 23 20.6112 23 19.2664V9H1V19.2664C1 20.6112 2.09408 21.705 3.43868 21.705ZM1 7H23V4.7336C23 3.38901 21.9059 2.29492 20.5613 2.29492H3.43868C2.09408 2.29492 1 3.38901 1 4.7336V7ZM3.05273 4.25781C2.55406 4.25781 2.14893 4.66294 2.14893 5.16162C2.14893 5.6606 2.55422 6.06537 3.05268 6.06537C3.5515 6.06537 3.95643 5.66044 3.95643 5.16162C3.95643 4.66322 3.55183 4.25781 3.05273 4.25781ZM5.46918 4.26846C4.97071 4.26846 4.56537 4.67319 4.56537 5.17222C4.56537 5.67116 4.97063 6.07602 5.46918 6.07602C5.96804 6.07602 6.37293 5.67105 6.37293 5.17222C6.37293 4.6733 5.96796 4.26846 5.46918 4.26846ZM7.88563 4.27891C7.38685 4.27891 6.98207 4.684 6.98207 5.18267C6.98207 5.68125 7.38677 6.08647 7.88563 6.08647C8.38453 6.08647 8.78938 5.68141 8.78938 5.18267C8.78938 4.68384 8.38445 4.27891 7.88563 4.27891ZM10.614 18.8659C10.54 19.2172 10.7647 19.562 11.116 19.636C11.4673 19.71 11.8121 19.4853 11.8861 19.134L13.302 12.415C13.376 12.0638 13.1513 11.719 12.8 11.645C12.4487 11.5709 12.1039 11.7957 12.0299 12.147L10.614 18.8659ZM9.59102 13.2887C9.32472 13.0366 8.90159 13.0366 8.63529 13.2887L6.80918 15.0171C6.5304 15.2809 6.5304 15.7183 6.80918 15.9822L8.63529 17.7106C8.90159 17.9626 9.32472 17.9626 9.59102 17.7106C9.86979 17.4467 9.86979 17.0093 9.59102 16.7455L8.27474 15.4996L9.59102 14.2538C9.86979 13.9899 9.86979 13.5525 9.59102 13.2887ZM15.7649 13.2887C15.4986 13.0366 15.0755 13.0366 14.8092 13.2887C14.5304 13.5525 14.5304 13.9899 14.8092 14.2538L16.1255 15.4996L14.8092 16.7455C14.5304 17.0093 14.5304 17.4467 14.8092 17.7106C15.0755 17.9626 15.4986 17.9626 15.7649 17.7106L17.591 15.9822C17.8698 15.7183 17.8698 15.2809 17.591 15.0171L15.7649 13.2887Z" fill="url(#paint0_linear_1026_17485)"/>
<defs>
<linearGradient id="paint0_linear_1026_17485" x1="12" y1="2.29492" x2="12" y2="21.705" gradientUnits="userSpaceOnUse">
<stop stop-color="#F45FE8"/>
<stop offset="1" stop-color="#766DE8"/>
</linearGradient>
</defs>
</svg>
